<?xml version="1.0" standalone="no"?>
<!DOCTYPE svg PUBLIC "-//W3C//DTD SVG 20010904//EN"
 "http://www.w3.org/TR/2001/REC-SVG-20010904/DTD/svg10.dtd">
<svg version="1.0" xmlns="http://www.w3.org/2000/svg"
 width="1024.000000pt" height="1024.000000pt" viewBox="0 0 1024.000000 1024.000000"
 preserveAspectRatio="xMidYMid meet">

<g transform="translate(0.000000,1024.000000) scale(0.100000,-0.100000)"
fill="#000000" stroke="none">
<path d="M4890 8343 c-825 -48 -1575 -408 -2147 -1028 -463 -502 -733 -1115
-794 -1805 -15 -169 -7 -532 16 -695 60 -440 201 -839 428 -1215 133 -220 269
-392 475 -602 l135 -137 -184 -189 c-102 -104 -193 -206 -204 -226 -18 -33
-18 -39 -5 -78 26 -74 103 -107 169 -73 16 8 106 99 201 202 96 103 181 196
190 206 16 18 22 15 141 -66 326 -222 646 -366 1024 -462 282 -72 432 -89 760
-90 300 0 415 11 657 61 408 85 839 273 1165 508 l75 54 185 -199 c101 -110
197 -206 213 -214 66 -34 144 -1 169 71 12 35 12 44 -3 76 -9 19 -98 119 -198
222 l-181 187 150 152 c168 171 217 228 326 374 329 445 530 974 587 1548 17
162 14 507 -5 670 -27 235 -87 484 -172 715 -48 132 -188 412 -273 548 -437
696 -1122 1192 -1926 1396 -286 72 -666 107 -974 89z m544 -279 c581 -64 1128
-305 1581 -695 536 -462 880 -1108 960 -1799 8 -74 15 -165 15 -202 l0 -68
-204 0 -204 0 -7 78 c-34 425 -137 765 -330 1096 -384 658 -1038 1092 -1810
1202 -156 22 -499 25 -645 5 -860 -117 -1571 -624 -1931 -1376 -136 -285 -203
-537 -231 -867 l-11 -138 -210 0 -210 0 7 123 c45 819 452 1572 1119 2070 616
460 1341 656 2111 571z m51 -603 c603 -108 1097 -407 1455 -882 410 -545 546
-1248 370 -1925 -235 -909 -1023 -1576 -1979 -1675 -162 -17 -474 -7 -626 20
-627 111 -1163 463 -1524 1001 -244 365 -364 769 -365 1235 -1 279 29 472 111
719 276 833 1039 1435 1938 1530 22 2 144 3 270 1 183 -2 255 -7 350 -24z
m-2861 -2383 c3 -18 10 -80 16 -138 116 -1064 960 -1949 2033 -2130 325 -55
711 -41 1026 36 601 148 1130 516 1468 1024 204 305 335 657 387 1038 9 62 16
131 16 153 0 26 5 42 15 46 9 3 104 2 212 -2 l196 -7 -7 -92 c-27 -368 -120
-712 -281 -1041 -160 -328 -359 -592 -645 -859 -402 -374 -950 -641 -1490
-725 -235 -37 -576 -44 -810 -16 -1040 121 -1931 787 -2340 1750 -112 264
-192 595 -215 897 l-7 87 93 4 c52 1 147 4 211 5 l117 2 5 -32z"/>
<path d="M4740 7129 c-202 -91 -213 -358 -20 -464 l55 -30 293 -3 c333 -4 367
1 441 65 144 123 111 346 -64 429 -49 23 -55 24 -355 24 -285 0 -308 -2 -350
-21z"/>
<path d="M4980 6133 c-184 -31 -349 -121 -482 -261 -83 -88 -138 -180 -180
-302 -31 -90 -32 -103 -33 -240 0 -164 13 -226 71 -349 124 -263 364 -437 652
-471 107 -13 219 -3 330 32 379 116 624 513 562 908 -55 346 -329 624 -670
679 -63 11 -199 13 -250 4z"/>
</g>
</svg>
